P310 1255116 175 209118 174 209118 174 209120 176 211118 177 211100 100 100000000000000