P310 1255118175209114160188911251466790104435562202020000000000000